# xmcd
#
# Track frame offsets: 
#        150
#        4234
#        23576
#        44707
#        70156
#        92799
#        112952
#        131804
#        152270
#        158916
#        180288
#        195729
#        211501
#        230091
#        248875
#        255212
#        280420
#
# Disc length: 3804 seconds
#
# Revision: 0
# Processed by: cddbd v1.5.2PL0 Copyright (c) Steve Scherf et al.
# Submitted via: ExactAudioCopy v0.99pb4
#
DISCID=db0eda11
DTITLE=India Aire - Acoustic Soul
DYEAR=2001
DGENRE=R&B
TTITLE0=Intro
TTITLE1=Video
TTITLE2=Promises
TTITLE3=Brown Skin
TTITLE4=Strength, Courage and Wisdom
TTITLE5=Nature
TTITLE6=Back to the Middle
TTITLE7=Ready for Love
TTITLE8=Interlude
TTITLE9=Always in My Head
TTITLE10=I See God in You
TTITLE11=Simple
TTITLE12=Part of My Life
TTITLE13=Beautiful
TTITLE14=Outro
TTITLE15=Wonderful (Stevie Wonder Dedication)
TTITLE16=Can I Walk with You
EXTD=
EXTT0=
EXTT1=
EXTT2=
EXTT3=
EXTT4=
EXTT5=
EXTT6=
EXTT7=
EXTT8=
EXTT9=
EXTT10=
EXTT11=
EXTT12=
EXTT13=
EXTT14=
EXTT15=
EXTT16=
PLAYORDER=
